<svg id="SvgjsSvg1335" width="751.109375" height="1158" xmlns="http://www.w3.org/2000/svg" version="1.1" xmlns:xlink="http://www.w3.org/1999/xlink" xmlns:svgjs="http://svgjs.com/svgjs"><defs id="SvgjsDefs1336"><marker id="SvgjsMarker1351" markerWidth="16" markerHeight="12" refX="16" refY="6" viewBox="0 0 16 12" orient="auto" markerUnits="userSpaceOnUse"><path id="SvgjsPath1352" d="M0,2 L14,6 L0,11 L0,2" fill="#323232" stroke="#323232" stroke-width="2"></path></marker><marker id="SvgjsMarker1515" markerWidth="16" markerHeight="12" refX="16" refY="6" viewBox="0 0 16 12" orient="auto" markerUnits="userSpaceOnUse"><path id="SvgjsPath1516" d="M0,2 L14,6 L0,11 L0,2" fill="#323232" stroke="#323232" stroke-width="2"></path></marker><marker id="SvgjsMarker1653" markerWidth="16" markerHeight="12" refX="16" refY="6" viewBox="0 0 16 12" orient="auto" markerUnits="userSpaceOnUse"><path id="SvgjsPath1654" d="M0,2 L14,6 L0,11 L0,2" fill="#323232" stroke="#323232" stroke-width="2"></path></marker></defs><g id="SvgjsG1337" transform="translate(242.8888888888889,71.88888888888889)"><path id="SvgjsPath1338" d="M 0 35C 0 -11.666666666666666 70 -11.666666666666666 70 35C 70 81.66666666666667 0 81.66666666666667 0 35Z" stroke="#323232" stroke-width="2" fill-opacity="1" fill="#ffffff"></path><g id="SvgjsG1339"><text id="SvgjsText1340" font-family="微软雅黑" text-anchor="middle" font-size="13px" width="49" fill="#323232" font-weight="400" align="middle" anchor="middle" family="微软雅黑" size="13px" weight="400" font-style="" y="1.05" transform="rotate(0)"><tspan id="SvgjsTspan1341" dy="16" x="35"><tspan id="SvgjsTspan1342" style="text-decoration:;">内网转</tspan></tspan><tspan id="SvgjsTspan1343" dy="16" x="35"><tspan id="SvgjsTspan1344" style="text-decoration:;">发</tspan></tspan><tspan id="SvgjsTspan1345" dy="16" x="35"><tspan id="SvgjsTspan1346" style="text-decoration:;">192.168.</tspan></tspan><tspan id="SvgjsTspan1347" dy="16" x="35"><tspan id="SvgjsTspan1348" style="text-decoration:;">1.101</tspan></tspan></text></g></g><g id="SvgjsG1349"><path id="SvgjsPath1350" d="M312.8888888888889 106.88888888888889C 390.0475677811241 106.88888888888887 422.8413211077648 60 500 60" stroke="#323232" stroke-width="2" fill="none" marker-end="url(#SvgjsMarker1351)"></path></g><g id="SvgjsG1353" transform="translate(500,25)"><path id="SvgjsPath1354" d="M 0 35C 0 -11.666666666666666 70 -11.666666666666666 70 35C 70 81.66666666666667 0 81.66666666666667 0 35Z" stroke="#323232" stroke-width="2" fill-opacity="1" fill="#ffffff"></path><g id="SvgjsG1355"><text id="SvgjsText1356" font-family="微软雅黑" text-anchor="middle" font-size="13px" width="39" fill="#323232" font-weight="400" align="middle" anchor="middle" family="微软雅黑" size="13px" weight="400" font-style="" y="17.05" transform="rotate(0)"><tspan id="SvgjsTspan1357" dy="16" x="35"><tspan id="SvgjsTspan1358" style="text-decoration:;">公网机</tspan></tspan><tspan id="SvgjsTspan1359" dy="16" x="35"><tspan id="SvgjsTspan1360" style="text-decoration:;">器</tspan></tspan></text></g></g><g id="SvgjsG1361" transform="translate(333,41)"><path id="SvgjsPath1362" d="M 0 0L 108 0L 108 20L 0 20Z" stroke="none" fill="none"></path><g id="SvgjsG1363"><text id="SvgjsText1364" font-family="微软雅黑" text-anchor="middle" font-size="13px" width="103" fill="#323232" font-weight="400" align="middle" anchor="middle" family="微软雅黑" size="13px" weight="400" font-style="" y="0.050000000000000044" transform="rotate(0)"><tspan id="SvgjsTspan1365" dy="16" x="54"><tspan id="SvgjsTspan1366" style="text-decoration:;">1. 主动建立连接a1</tspan></tspan></text></g></g><g id="SvgjsG1367" transform="translate(333,116)"><path id="SvgjsPath1368" d="M 0 0L 152 0L 152 20L 0 20Z" stroke="none" fill="none"></path><g id="SvgjsG1369"><text id="SvgjsText1370" font-family="微软雅黑" text-anchor="middle" font-size="13px" width="133" fill="#323232" font-weight="400" align="middle" anchor="middle" family="微软雅黑" size="13px" weight="400" font-style="" y="-7.95" transform="rotate(0)"><tspan id="SvgjsTspan1371" dy="16" x="76"><tspan id="SvgjsTspan1372" style="text-decoration:;">2. 发送内网连接标识别</tspan></tspan><tspan id="SvgjsTspan1373" dy="16" x="76"><tspan id="SvgjsTspan1374" style="text-decoration:;"> </tspan></tspan></text></g></g><g id="SvgjsG1375" transform="translate(656.1111111111105,115.22222222222223)"><path id="SvgjsPath1376" d="M 0 35C 0 -11.666666666666666 70 -11.666666666666666 70 35C 70 81.66666666666667 0 81.66666666666667 0 35Z" stroke="#323232" stroke-width="2" fill-opacity="1" fill="#ffffff"></path><g id="SvgjsG1377"><text id="SvgjsText1378" font-family="微软雅黑" text-anchor="middle" font-size="13px" width="26" fill="#323232" font-weight="400" align="middle" anchor="middle" family="微软雅黑" size="13px" weight="400" font-style="" y="25.05" transform="rotate(0)"><tspan id="SvgjsTspan1379" dy="16" x="35"><tspan id="SvgjsTspan1380" style="text-decoration:;">外部</tspan></tspan></text></g></g><g id="SvgjsG1381" transform="translate(505.5186222565069,97.79462700561123)"><path id="SvgjsPath1382" d="M 0 4Q 0 0 4 0L 97.99182474380416 0Q 101.99182474380416 0 101.99182474380416 4L 101.99182474380416 30.44444444444443Q 101.99182474380416 34.44444444444443 97.99182474380416 34.44444444444443L 4 34.44444444444443Q 0 34.44444444444443 0 30.44444444444443Z" stroke="#323232" stroke-width="2" fill-opacity="1" fill="#ffffff"></path><g id="SvgjsG1383"><text id="SvgjsText1384" font-family="微软雅黑" text-anchor="middle" font-size="13px" width="56" fill="#323232" font-weight="400" align="middle" anchor="middle" family="微软雅黑" size="13px" weight="400" font-style="" y="7.272222222222214" transform="rotate(0)"><tspan id="SvgjsTspan1385" dy="16" x="51"><tspan id="SvgjsTspan1386" style="text-decoration:;">fd 映射表</tspan></tspan></text></g></g><g id="SvgjsG1387" transform="translate(539.5279902122634,129.94041548506362)"><path id="SvgjsPath1388" d="M 0 0L 34 0L 34 22L 0 22Z" stroke="#323232" stroke-width="2" fill-opacity="1" fill="#ffffff"></path><g id="SvgjsG1389"><text id="SvgjsText1390" font-family="微软雅黑" text-anchor="middle" font-size="13px" width="12" fill="#323232" font-weight="400" align="middle" anchor="middle" family="微软雅黑" size="13px" weight="400" font-style="" y="1.05" transform="rotate(0)"><tspan id="SvgjsTspan1391" dy="16" x="17"><tspan id="SvgjsTspan1392" style="text-decoration:;">fd</tspan></tspan></text></g></g><g id="SvgjsG1393" transform="translate(539.5279902122634,151.94041548506377)"><path id="SvgjsPath1394" d="M 0 0L 34 0L 34 22L 0 22Z" stroke="#323232" stroke-width="2" fill-opacity="1" fill="#ffffff"></path><g id="SvgjsG1395"><text id="SvgjsText1396" font-family="微软雅黑" text-anchor="middle" font-size="13px" width="8" fill="#323232" font-weight="400" align="middle" anchor="middle" family="微软雅黑" size="13px" weight="400" font-style="" y="1.05" transform="rotate(0)"><tspan id="SvgjsTspan1397" dy="16" x="17"><tspan id="SvgjsTspan1398" style="text-decoration:;">3</tspan></tspan></text></g></g><g id="SvgjsG1399" transform="translate(539.5279902122634,171.9404154850639)"><path id="SvgjsPath1400" d="M 0 0L 34 0L 34 22L 0 22Z" stroke="#323232" stroke-width="2" fill-opacity="1" fill="#ffffff"></path><g id="SvgjsG1401"><text id="SvgjsText1402" font-family="微软雅黑" text-anchor="middle" font-size="13px" width="8" fill="#323232" font-weight="400" align="middle" anchor="middle" family="微软雅黑" size="13px" weight="400" font-style="" y="1.05" transform="rotate(0)"><tspan id="SvgjsTspan1403" dy="16" x="17"><tspan id="SvgjsTspan1404" style="text-decoration:;">4</tspan></tspan></text></g></g><g id="SvgjsG1405" transform="translate(539.5279902122634,191.94041548506394)"><path id="SvgjsPath1406" d="M 0 0L 34 0L 34 22L 0 22Z" stroke="#323232" stroke-width="2" fill-opacity="1" fill="#ffffff"></path><g id="SvgjsG1407"><text id="SvgjsText1408" font-family="微软雅黑" text-anchor="middle" font-size="13px" width="8" fill="#323232" font-weight="400" align="middle" anchor="middle" family="微软雅黑" size="13px" weight="400" font-style="" y="1.05" transform="rotate(0)"><tspan id="SvgjsTspan1409" dy="16" x="17"><tspan id="SvgjsTspan1410" style="text-decoration:;">5</tspan></tspan></text></g></g><g id="SvgjsG1411" transform="translate(573.5279902122635,129.94041548506362)"><path id="SvgjsPath1412" d="M 0 0L 34 0L 34 22L 0 22Z" stroke="#323232" stroke-width="2" fill-opacity="1" fill="#ffffff"></path><g id="SvgjsG1413"><text id="SvgjsText1414" font-family="微软雅黑" text-anchor="middle" font-size="13px" width="12" fill="#323232" font-weight="400" align="middle" anchor="middle" family="微软雅黑" size="13px" weight="400" font-style="" y="1.05" transform="rotate(0)"><tspan id="SvgjsTspan1415" dy="16" x="17"><tspan id="SvgjsTspan1416" style="text-decoration:;">fd</tspan></tspan></text></g></g><g id="SvgjsG1417" transform="translate(573.5279902122635,151.94041548506377)"><path id="SvgjsPath1418" d="M 0 0L 34 0L 34 22L 0 22Z" stroke="#323232" stroke-width="2" fill-opacity="1" fill="#ffffff"></path><g id="SvgjsG1419"><text id="SvgjsText1420" font-family="微软雅黑" text-anchor="middle" font-size="13px" width="0" fill="#323232" font-weight="400" align="middle" anchor="middle" family="微软雅黑" size="13px" weight="400" font-style="" y="1.05" transform="rotate(0)"></text></g></g><g id="SvgjsG1421" transform="translate(573.5279902122635,171.9404154850639)"><path id="SvgjsPath1422" d="M 0 0L 34 0L 34 22L 0 22Z" stroke="#323232" stroke-width="2" fill-opacity="1" fill="#ffffff"></path><g id="SvgjsG1423"><text id="SvgjsText1424" font-family="微软雅黑" text-anchor="middle" font-size="13px" width="0" fill="#323232" font-weight="400" align="middle" anchor="middle" family="微软雅黑" size="13px" weight="400" font-style="" y="1.05" transform="rotate(0)"></text></g></g><g id="SvgjsG1425" transform="translate(573.5279902122635,191.94041548506394)"><path id="SvgjsPath1426" d="M 0 0L 34 0L 34 22L 0 22Z" stroke="#323232" stroke-width="2" fill-opacity="1" fill="#ffffff"></path><g id="SvgjsG1427"><text id="SvgjsText1428" font-family="微软雅黑" text-anchor="middle" font-size="13px" width="0" fill="#323232" font-weight="400" align="middle" anchor="middle" family="微软雅黑" size="13px" weight="400" font-style="" y="1.05" transform="rotate(0)"></text></g></g><g id="SvgjsG1429" transform="translate(505.4340318413624,129.86499464174318)"><path id="SvgjsPath1430" d="M 0 0L 34 0L 34 22L 0 22Z" stroke="#323232" stroke-width="2" fill-opacity="1" fill="#ffffff"></path><g id="SvgjsG1431"><text id="SvgjsText1432" font-family="微软雅黑" text-anchor="middle" font-size="12px" width="9" fill="#323232" font-weight="400" align="middle" anchor="middle" family="微软雅黑" size="12px" weight="400" font-style="" y="1.7000000000000002" transform="rotate(0)"><tspan id="SvgjsTspan1433" dy="15" x="17"><tspan id="SvgjsTspan1434" style="text-decoration:;">ix</tspan></tspan></text></g></g><g id="SvgjsG1435" transform="translate(505.4343106082399,150.0198975436392)"><path id="SvgjsPath1436" d="M 0 0L 34 0L 34 22L 0 22Z" stroke="#323232" stroke-width="2" fill-opacity="1" fill="#ffffff"></path><g id="SvgjsG1437"><text id="SvgjsText1438" font-family="微软雅黑" text-anchor="middle" font-size="13px" width="8" fill="#323232" font-weight="400" align="middle" anchor="middle" family="微软雅黑" size="13px" weight="400" font-style="" y="1.05" transform="rotate(0)"><tspan id="SvgjsTspan1439" dy="16" x="17"><tspan id="SvgjsTspan1440" style="text-decoration:;">0</tspan></tspan></text></g></g><g id="SvgjsG1441" transform="translate(506.2799359928074,172.24211976586156)"><path id="SvgjsPath1442" d="M 0 0L 34 0L 34 22L 0 22Z" stroke="#323232" stroke-width="2" fill-opacity="1" fill="#ffffff"></path><g id="SvgjsG1443"><text id="SvgjsText1444" font-family="微软雅黑" text-anchor="middle" font-size="13px" width="5" fill="#323232" font-weight="400" align="middle" anchor="middle" family="微软雅黑" size="13px" weight="400" font-style="" y="1.05" transform="rotate(0)"><tspan id="SvgjsTspan1445" dy="16" x="17"><tspan id="SvgjsTspan1446" style="text-decoration:;">1</tspan></tspan></text></g></g><g id="SvgjsG1447" transform="translate(505.4343106082399,191.90270297265212)"><path id="SvgjsPath1448" d="M 0 0L 34 0L 34 22L 0 22Z" stroke="#323232" stroke-width="2" fill-opacity="1" fill="#ffffff"></path><g id="SvgjsG1449"><text id="SvgjsText1450" font-family="微软雅黑" text-anchor="middle" font-size="13px" width="8" fill="#323232" font-weight="400" align="middle" anchor="middle" family="微软雅黑" size="13px" weight="400" font-style="" y="1.05" transform="rotate(0)"><tspan id="SvgjsTspan1451" dy="16" x="17"><tspan id="SvgjsTspan1452" style="text-decoration:;">2</tspan></tspan></text></g></g><g id="SvgjsG1453" transform="translate(573.5189326583975,215.40887473838953)"><path id="SvgjsPath1454" d="M 0 0L 34 0L 34 22L 0 22Z" stroke="#323232" stroke-width="2" fill-opacity="1" fill="#ffffff"></path><g id="SvgjsG1455"><text id="SvgjsText1456" font-family="微软雅黑" text-anchor="middle" font-size="13px" width="8" fill="#323232" font-weight="400" align="middle" anchor="middle" family="微软雅黑" size="13px" weight="400" font-style="" y="1.05" transform="rotate(0)"><tspan id="SvgjsTspan1457" dy="16" x="17"><tspan id="SvgjsTspan1458" style="text-decoration:;">0</tspan></tspan></text></g></g><g id="SvgjsG1459" transform="translate(573.5087716114484,237.2377676857628)"><path id="SvgjsPath1460" d="M 0 0L 34 0L 34 22L 0 22Z" stroke="#323232" stroke-width="2" fill-opacity="1" fill="#ffffff"></path><g id="SvgjsG1461"><text id="SvgjsText1462" font-family="微软雅黑" text-anchor="middle" font-size="13px" width="5" fill="#323232" font-weight="400" align="middle" anchor="middle" family="微软雅黑" size="13px" weight="400" font-style="" y="1.05" transform="rotate(0)"><tspan id="SvgjsTspan1463" dy="16" x="17"><tspan id="SvgjsTspan1464" style="text-decoration:;">1</tspan></tspan></text></g></g><g id="SvgjsG1465" transform="translate(573.5067394009114,259.23407583662066)"><path id="SvgjsPath1466" d="M 0 0L 34 0L 34 22L 0 22Z" stroke="#323232" stroke-width="2" fill-opacity="1" fill="#ffffff"></path><g id="SvgjsG1467"><text id="SvgjsText1468" font-family="微软雅黑" text-anchor="middle" font-size="13px" width="8" fill="#323232" font-weight="400" align="middle" anchor="middle" family="微软雅黑" size="13px" weight="400" font-style="" y="1.05" transform="rotate(0)"><tspan id="SvgjsTspan1469" dy="16" x="17"><tspan id="SvgjsTspan1470" style="text-decoration:;">2</tspan></tspan></text></g></g><g id="SvgjsG1471" transform="translate(539.5467426533323,215.04133506497791)"><path id="SvgjsPath1472" d="M 0 0L 34 0L 34 22L 0 22Z" stroke="#323232" stroke-width="2" fill-opacity="1" fill="#ffffff"></path><g id="SvgjsG1473"><text id="SvgjsText1474" font-family="微软雅黑" text-anchor="middle" font-size="13px" width="0" fill="#323232" font-weight="400" align="middle" anchor="middle" family="微软雅黑" size="13px" weight="400" font-style="" y="1.05" transform="rotate(0)"></text></g></g><g id="SvgjsG1475" transform="translate(539.5599520218229,236.59710931314905)"><path id="SvgjsPath1476" d="M 0 0L 34 0L 34 22L 0 22Z" stroke="#323232" stroke-width="2" fill-opacity="1" fill="#ffffff"></path><g id="SvgjsG1477"><text id="SvgjsText1478" font-family="微软雅黑" text-anchor="middle" font-size="13px" width="0" fill="#323232" font-weight="400" align="middle" anchor="middle" family="微软雅黑" size="13px" weight="400" font-style="" y="1.05" transform="rotate(0)"></text></g></g><g id="SvgjsG1479" transform="translate(539.5145346284093,259.17954485387753)"><path id="SvgjsPath1480" d="M 0 0L 34 0L 34 22L 0 22Z" stroke="#323232" stroke-width="2" fill-opacity="1" fill="#ffffff"></path><g id="SvgjsG1481"><text id="SvgjsText1482" font-family="微软雅黑" text-anchor="middle" font-size="13px" width="0" fill="#323232" font-weight="400" align="middle" anchor="middle" family="微软雅黑" size="13px" weight="400" font-style="" y="1.05" transform="rotate(0)"></text></g></g><g id="SvgjsG1483" transform="translate(505.45689072531786,213.93664465197307)"><path id="SvgjsPath1484" d="M 0 0L 34 0L 34 22L 0 22Z" stroke="#323232" stroke-width="2" fill-opacity="1" fill="#ffffff"></path><g id="SvgjsG1485"><text id="SvgjsText1486" font-family="微软雅黑" text-anchor="middle" font-size="13px" width="8" fill="#323232" font-weight="400" align="middle" anchor="middle" family="微软雅黑" size="13px" weight="400" font-style="" y="1.05" transform="rotate(0)"><tspan id="SvgjsTspan1487" dy="16" x="17"><tspan id="SvgjsTspan1488" style="text-decoration:;">3</tspan></tspan></text></g></g><g id="SvgjsG1489" transform="translate(505.5186473455259,237.34742941302372)"><path id="SvgjsPath1490" d="M 0 0L 34 0L 34 22L 0 22Z" stroke="#323232" stroke-width="2" fill-opacity="1" fill="#ffffff"></path><g id="SvgjsG1491"><text id="SvgjsText1492" font-family="微软雅黑" text-anchor="middle" font-size="13px" width="8" fill="#323232" font-weight="400" align="middle" anchor="middle" family="微软雅黑" size="13px" weight="400" font-style="" y="1.05" transform="rotate(0)"><tspan id="SvgjsTspan1493" dy="16" x="17"><tspan id="SvgjsTspan1494" style="text-decoration:;">4</tspan></tspan></text></g></g><g id="SvgjsG1495" transform="translate(505.5186222565069,259.35610500477856)"><path id="SvgjsPath1496" d="M 0 0L 34 0L 34 22L 0 22Z" stroke="#323232" stroke-width="2" fill-opacity="1" fill="#ffffff"></path><g id="SvgjsG1497"><text id="SvgjsText1498" font-family="微软雅黑" text-anchor="middle" font-size="13px" width="8" fill="#323232" font-weight="400" align="middle" anchor="middle" family="微软雅黑" size="13px" weight="400" font-style="" y="1.05" transform="rotate(0)"><tspan id="SvgjsTspan1499" dy="16" x="17"><tspan id="SvgjsTspan1500" style="text-decoration:;">5</tspan></tspan></text></g></g><g id="SvgjsG1501" transform="translate(101.77777777777759,215.29609558653917)"><path id="SvgjsPath1502" d="M 0 35C 0 -11.666666666666666 70 -11.666666666666666 70 35C 70 81.66666666666667 0 81.66666666666667 0 35Z" stroke="#323232" stroke-width="2" fill-opacity="1" fill="#ffffff"></path><g id="SvgjsG1503"><text id="SvgjsText1504" font-family="微软雅黑" text-anchor="middle" font-size="13px" width="49" fill="#323232" font-weight="400" align="middle" anchor="middle" family="微软雅黑" size="13px" weight="400" font-style="" y="1.05" transform="rotate(0)"><tspan id="SvgjsTspan1505" dy="16" x="35"><tspan id="SvgjsTspan1506" style="text-decoration:;">内网提</tspan></tspan><tspan id="SvgjsTspan1507" dy="16" x="35"><tspan id="SvgjsTspan1508" style="text-decoration:;">供服务</tspan></tspan><tspan id="SvgjsTspan1509" dy="16" x="35"><tspan id="SvgjsTspan1510" style="text-decoration:;">192.168.</tspan></tspan><tspan id="SvgjsTspan1511" dy="16" x="35"><tspan id="SvgjsTspan1512" style="text-decoration:;">1.102 </tspan></tspan></text></g></g><g id="SvgjsG1513"><path id="SvgjsPath1514" d="M671.0460651312292 121.34990251748215C 643.9245783893131 82.61640528713204 617.2848691526737 60 570 60" stroke="#323232" stroke-width="2" fill="none" marker-end="url(#SvgjsMarker1515)"></path></g><g id="SvgjsG1517" transform="translate(618.0617283950611,50.1358024691358)"><path id="SvgjsPath1518" d="M 0 0L 108 0L 108 20L 0 20Z" stroke="none" fill="none"></path><g id="SvgjsG1519"><text id="SvgjsText1520" font-family="微软雅黑" text-anchor="middle" font-size="13px" width="107" fill="#323232" font-weight="400" align="middle" anchor="middle" family="微软雅黑" size="13px" weight="400" font-style="" y="-7.95" transform="rotate(0)"><tspan id="SvgjsTspan1521" dy="16" x="54"><tspan id="SvgjsTspan1522" style="text-decoration:;">5. 建立连接，加入</tspan></tspan><tspan id="SvgjsTspan1523" dy="16" x="54"><tspan id="SvgjsTspan1524" style="text-decoration:;">映射表</tspan></tspan></text></g></g><g id="SvgjsG1525" transform="translate(76.33333333333353,84.34941486535578)"><path id="SvgjsPath1526" d="M 0 0L 152 0L 152 20L 0 20Z" stroke="none" fill="none"></path><g id="SvgjsG1527"><text id="SvgjsText1528" font-family="微软雅黑" text-anchor="middle" font-size="13px" width="145" fill="#323232" font-weight="400" align="middle" anchor="middle" family="微软雅黑" size="13px" weight="400" font-style="" y="0.050000000000000044" transform="rotate(0)"><tspan id="SvgjsTspan1529" dy="16" x="76"><tspan id="SvgjsTspan1530" style="text-decoration:;">3. 建立与server的连接a2</tspan></tspan></text></g></g><g id="SvgjsG1531" transform="translate(252.14137140095,143.05314606889587)"><path id="SvgjsPath1532" d="M 0 4Q 0 0 4 0L 97.99182474380416 0Q 101.99182474380416 0 101.99182474380416 4L 101.99182474380416 30.44444444444443Q 101.99182474380416 34.44444444444443 97.99182474380416 34.44444444444443L 4 34.44444444444443Q 0 34.44444444444443 0 30.44444444444443Z" stroke="#323232" stroke-width="2" fill-opacity="1" fill="#ffffff"></path><g id="SvgjsG1533"><text id="SvgjsText1534" font-family="微软雅黑" text-anchor="middle" font-size="13px" width="56" fill="#323232" font-weight="400" align="middle" anchor="middle" family="微软雅黑" size="13px" weight="400" font-style="" y="7.272222222222214" transform="rotate(0)"><tspan id="SvgjsTspan1535" dy="16" x="51"><tspan id="SvgjsTspan1536" style="text-decoration:;">fd 映射表</tspan></tspan></text></g></g><g id="SvgjsG1537" transform="translate(286.1507393567064,175.19893454834823)"><path id="SvgjsPath1538" d="M 0 0L 34 0L 34 22L 0 22Z" stroke="#323232" stroke-width="2" fill-opacity="1" fill="#ffffff"></path><g id="SvgjsG1539"><text id="SvgjsText1540" font-family="微软雅黑" text-anchor="middle" font-size="13px" width="12" fill="#323232" font-weight="400" align="middle" anchor="middle" family="微软雅黑" size="13px" weight="400" font-style="" y="1.05" transform="rotate(0)"><tspan id="SvgjsTspan1541" dy="16" x="17"><tspan id="SvgjsTspan1542" style="text-decoration:;">fd</tspan></tspan></text></g></g><g id="SvgjsG1543" transform="translate(286.1507393567064,197.1989345483484)"><path id="SvgjsPath1544" d="M 0 0L 34 0L 34 22L 0 22Z" stroke="#323232" stroke-width="2" fill-opacity="1" fill="#ffffff"></path><g id="SvgjsG1545"><text id="SvgjsText1546" font-family="微软雅黑" text-anchor="middle" font-size="13px" width="8" fill="#323232" font-weight="400" align="middle" anchor="middle" family="微软雅黑" size="13px" weight="400" font-style="" y="1.05" transform="rotate(0)"><tspan id="SvgjsTspan1547" dy="16" x="17"><tspan id="SvgjsTspan1548" style="text-decoration:;">3</tspan></tspan></text></g></g><g id="SvgjsG1549" transform="translate(286.1507393567064,217.1989345483487)"><path id="SvgjsPath1550" d="M 0 0L 34 0L 34 22L 0 22Z" stroke="#323232" stroke-width="2" fill-opacity="1" fill="#ffffff"></path><g id="SvgjsG1551"><text id="SvgjsText1552" font-family="微软雅黑" text-anchor="middle" font-size="13px" width="8" fill="#323232" font-weight="400" align="middle" anchor="middle" family="微软雅黑" size="13px" weight="400" font-style="" y="1.05" transform="rotate(0)"><tspan id="SvgjsTspan1553" dy="16" x="17"><tspan id="SvgjsTspan1554" style="text-decoration:;">4</tspan></tspan></text></g></g><g id="SvgjsG1555" transform="translate(286.1507393567064,237.19893454834875)"><path id="SvgjsPath1556" d="M 0 0L 34 0L 34 22L 0 22Z" stroke="#323232" stroke-width="2" fill-opacity="1" fill="#ffffff"></path><g id="SvgjsG1557"><text id="SvgjsText1558" font-family="微软雅黑" text-anchor="middle" font-size="13px" width="8" fill="#323232" font-weight="400" align="middle" anchor="middle" family="微软雅黑" size="13px" weight="400" font-style="" y="1.05" transform="rotate(0)"><tspan id="SvgjsTspan1559" dy="16" x="17"><tspan id="SvgjsTspan1560" style="text-decoration:;">5</tspan></tspan></text></g></g><g id="SvgjsG1561" transform="translate(320.1507393567067,175.19893454834823)"><path id="SvgjsPath1562" d="M 0 0L 34 0L 34 22L 0 22Z" stroke="#323232" stroke-width="2" fill-opacity="1" fill="#ffffff"></path><g id="SvgjsG1563"><text id="SvgjsText1564" font-family="微软雅黑" text-anchor="middle" font-size="13px" width="12" fill="#323232" font-weight="400" align="middle" anchor="middle" family="微软雅黑" size="13px" weight="400" font-style="" y="1.05" transform="rotate(0)"><tspan id="SvgjsTspan1565" dy="16" x="17"><tspan id="SvgjsTspan1566" style="text-decoration:;">fd</tspan></tspan></text></g></g><g id="SvgjsG1567" transform="translate(320.1507393567067,197.1989345483484)"><path id="SvgjsPath1568" d="M 0 0L 34 0L 34 22L 0 22Z" stroke="#323232" stroke-width="2" fill-opacity="1" fill="#ffffff"></path><g id="SvgjsG1569"><text id="SvgjsText1570" font-family="微软雅黑" text-anchor="middle" font-size="13px" width="0" fill="#323232" font-weight="400" align="middle" anchor="middle" family="微软雅黑" size="13px" weight="400" font-style="" y="1.05" transform="rotate(0)"></text></g></g><g id="SvgjsG1571" transform="translate(320.1507393567067,217.1989345483487)"><path id="SvgjsPath1572" d="M 0 0L 34 0L 34 22L 0 22Z" stroke="#323232" stroke-width="2" fill-opacity="1" fill="#ffffff"></path><g id="SvgjsG1573"><text id="SvgjsText1574" font-family="微软雅黑" text-anchor="middle" font-size="13px" width="0" fill="#323232" font-weight="400" align="middle" anchor="middle" family="微软雅黑" size="13px" weight="400" font-style="" y="1.05" transform="rotate(0)"></text></g></g><g id="SvgjsG1575" transform="translate(320.1507393567067,237.19893454834875)"><path id="SvgjsPath1576" d="M 0 0L 34 0L 34 22L 0 22Z" stroke="#323232" stroke-width="2" fill-opacity="1" fill="#ffffff"></path><g id="SvgjsG1577"><text id="SvgjsText1578" font-family="微软雅黑" text-anchor="middle" font-size="13px" width="0" fill="#323232" font-weight="400" align="middle" anchor="middle" family="微软雅黑" size="13px" weight="400" font-style="" y="1.05" transform="rotate(0)"></text></g></g><g id="SvgjsG1579" transform="translate(252.05678098580552,175.1235137050278)"><path id="SvgjsPath1580" d="M 0 0L 34 0L 34 22L 0 22Z" stroke="#323232" stroke-width="2" fill-opacity="1" fill="#ffffff"></path><g id="SvgjsG1581"><text id="SvgjsText1582" font-family="微软雅黑" text-anchor="middle" font-size="12px" width="9" fill="#323232" font-weight="400" align="middle" anchor="middle" family="微软雅黑" size="12px" weight="400" font-style="" y="1.7000000000000002" transform="rotate(0)"><tspan id="SvgjsTspan1583" dy="15" x="17"><tspan id="SvgjsTspan1584" style="text-decoration:;">ix</tspan></tspan></text></g></g><g id="SvgjsG1585" transform="translate(252.05705975268302,195.27841660692377)"><path id="SvgjsPath1586" d="M 0 0L 34 0L 34 22L 0 22Z" stroke="#323232" stroke-width="2" fill-opacity="1" fill="#ffffff"></path><g id="SvgjsG1587"><text id="SvgjsText1588" font-family="微软雅黑" text-anchor="middle" font-size="13px" width="8" fill="#323232" font-weight="400" align="middle" anchor="middle" family="微软雅黑" size="13px" weight="400" font-style="" y="1.05" transform="rotate(0)"><tspan id="SvgjsTspan1589" dy="16" x="17"><tspan id="SvgjsTspan1590" style="text-decoration:;">0</tspan></tspan></text></g></g><g id="SvgjsG1591" transform="translate(252.9026851372505,217.50063882914634)"><path id="SvgjsPath1592" d="M 0 0L 34 0L 34 22L 0 22Z" stroke="#323232" stroke-width="2" fill-opacity="1" fill="#ffffff"></path><g id="SvgjsG1593"><text id="SvgjsText1594" font-family="微软雅黑" text-anchor="middle" font-size="13px" width="5" fill="#323232" font-weight="400" align="middle" anchor="middle" family="微软雅黑" size="13px" weight="400" font-style="" y="1.05" transform="rotate(0)"><tspan id="SvgjsTspan1595" dy="16" x="17"><tspan id="SvgjsTspan1596" style="text-decoration:;">1</tspan></tspan></text></g></g><g id="SvgjsG1597" transform="translate(252.05705975268302,237.16122203593693)"><path id="SvgjsPath1598" d="M 0 0L 34 0L 34 22L 0 22Z" stroke="#323232" stroke-width="2" fill-opacity="1" fill="#ffffff"></path><g id="SvgjsG1599"><text id="SvgjsText1600" font-family="微软雅黑" text-anchor="middle" font-size="13px" width="8" fill="#323232" font-weight="400" align="middle" anchor="middle" family="微软雅黑" size="13px" weight="400" font-style="" y="1.05" transform="rotate(0)"><tspan id="SvgjsTspan1601" dy="16" x="17"><tspan id="SvgjsTspan1602" style="text-decoration:;">2</tspan></tspan></text></g></g><g id="SvgjsG1603" transform="translate(320.1416818028407,260.66739380167445)"><path id="SvgjsPath1604" d="M 0 0L 34 0L 34 22L 0 22Z" stroke="#323232" stroke-width="2" fill-opacity="1" fill="#ffffff"></path><g id="SvgjsG1605"><text id="SvgjsText1606" font-family="微软雅黑" text-anchor="middle" font-size="13px" width="8" fill="#323232" font-weight="400" align="middle" anchor="middle" family="微软雅黑" size="13px" weight="400" font-style="" y="1.05" transform="rotate(0)"><tspan id="SvgjsTspan1607" dy="16" x="17"><tspan id="SvgjsTspan1608" style="text-decoration:;">0</tspan></tspan></text></g></g><g id="SvgjsG1609" transform="translate(320.13152075589164,282.4962867490476)"><path id="SvgjsPath1610" d="M 0 0L 34 0L 34 22L 0 22Z" stroke="#323232" stroke-width="2" fill-opacity="1" fill="#ffffff"></path><g id="SvgjsG1611"><text id="SvgjsText1612" font-family="微软雅黑" text-anchor="middle" font-size="13px" width="5" fill="#323232" font-weight="400" align="middle" anchor="middle" family="微软雅黑" size="13px" weight="400" font-style="" y="1.05" transform="rotate(0)"><tspan id="SvgjsTspan1613" dy="16" x="17"><tspan id="SvgjsTspan1614" style="text-decoration:;">1</tspan></tspan></text></g></g><g id="SvgjsG1615" transform="translate(320.12948854535466,304.4925948999054)"><path id="SvgjsPath1616" d="M 0 0L 34 0L 34 22L 0 22Z" stroke="#323232" stroke-width="2" fill-opacity="1" fill="#ffffff"></path><g id="SvgjsG1617"><text id="SvgjsText1618" font-family="微软雅黑" text-anchor="middle" font-size="13px" width="8" fill="#323232" font-weight="400" align="middle" anchor="middle" family="微软雅黑" size="13px" weight="400" font-style="" y="1.05" transform="rotate(0)"><tspan id="SvgjsTspan1619" dy="16" x="17"><tspan id="SvgjsTspan1620" style="text-decoration:;">2</tspan></tspan></text></g></g><g id="SvgjsG1621" transform="translate(286.1694917977754,260.2998541282628)"><path id="SvgjsPath1622" d="M 0 0L 34 0L 34 22L 0 22Z" stroke="#323232" stroke-width="2" fill-opacity="1" fill="#ffffff"></path><g id="SvgjsG1623"><text id="SvgjsText1624" font-family="微软雅黑" text-anchor="middle" font-size="13px" width="0" fill="#323232" font-weight="400" align="middle" anchor="middle" family="微软雅黑" size="13px" weight="400" font-style="" y="1.05" transform="rotate(0)"></text></g></g><g id="SvgjsG1625" transform="translate(286.182701166266,281.85562837643386)"><path id="SvgjsPath1626" d="M 0 0L 34 0L 34 22L 0 22Z" stroke="#323232" stroke-width="2" fill-opacity="1" fill="#ffffff"></path><g id="SvgjsG1627"><text id="SvgjsText1628" font-family="微软雅黑" text-anchor="middle" font-size="13px" width="0" fill="#323232" font-weight="400" align="middle" anchor="middle" family="微软雅黑" size="13px" weight="400" font-style="" y="1.05" transform="rotate(0)"></text></g></g><g id="SvgjsG1629" transform="translate(286.1372837728523,304.43806391716225)"><path id="SvgjsPath1630" d="M 0 0L 34 0L 34 22L 0 22Z" stroke="#323232" stroke-width="2" fill-opacity="1" fill="#ffffff"></path><g id="SvgjsG1631"><text id="SvgjsText1632" font-family="微软雅黑" text-anchor="middle" font-size="13px" width="0" fill="#323232" font-weight="400" align="middle" anchor="middle" family="微软雅黑" size="13px" weight="400" font-style="" y="1.05" transform="rotate(0)"></text></g></g><g id="SvgjsG1633" transform="translate(252.07963986976097,259.19516371525793)"><path id="SvgjsPath1634" d="M 0 0L 34 0L 34 22L 0 22Z" stroke="#323232" stroke-width="2" fill-opacity="1" fill="#ffffff"></path><g id="SvgjsG1635"><text id="SvgjsText1636" font-family="微软雅黑" text-anchor="middle" font-size="13px" width="8" fill="#323232" font-weight="400" align="middle" anchor="middle" family="微软雅黑" size="13px" weight="400" font-style="" y="1.05" transform="rotate(0)"><tspan id="SvgjsTspan1637" dy="16" x="17"><tspan id="SvgjsTspan1638" style="text-decoration:;">3</tspan></tspan></text></g></g><g id="SvgjsG1639" transform="translate(252.141396489969,282.6059484763085)"><path id="SvgjsPath1640" d="M 0 0L 34 0L 34 22L 0 22Z" stroke="#323232" stroke-width="2" fill-opacity="1" fill="#ffffff"></path><g id="SvgjsG1641"><text id="SvgjsText1642" font-family="微软雅黑" text-anchor="middle" font-size="13px" width="8" fill="#323232" font-weight="400" align="middle" anchor="middle" family="微软雅黑" size="13px" weight="400" font-style="" y="1.05" transform="rotate(0)"><tspan id="SvgjsTspan1643" dy="16" x="17"><tspan id="SvgjsTspan1644" style="text-decoration:;">4</tspan></tspan></text></g></g><g id="SvgjsG1645" transform="translate(252.14137140095,304.6146240680633)"><path id="SvgjsPath1646" d="M 0 0L 34 0L 34 22L 0 22Z" stroke="#323232" stroke-width="2" fill-opacity="1" fill="#ffffff"></path><g id="SvgjsG1647"><text id="SvgjsText1648" font-family="微软雅黑" text-anchor="middle" font-size="13px" width="8" fill="#323232" font-weight="400" align="middle" anchor="middle" family="微软雅黑" size="13px" weight="400" font-style="" y="1.05" transform="rotate(0)"><tspan id="SvgjsTspan1649" dy="16" x="17"><tspan id="SvgjsTspan1650" style="text-decoration:;">5</tspan></tspan></text></g></g><g id="SvgjsG1651"><path id="SvgjsPath1652" d="M242.8888888888889 104.94101508916323C 181.6512381268723 104.94101508916323 136.7777777777776 154.05844482452258 136.7777777777776 215.29609558653917" stroke="#323232" stroke-width="2" fill="none" marker-end="url(#SvgjsMarker1653)"></path></g><g id="SvgjsG1655" transform="translate(80.14137140095002,143.05314606889587)"><path id="SvgjsPath1656" d="M 0 0L 152 0L 152 20L 0 20Z" stroke="none" fill="none"></path><g id="SvgjsG1657"><text id="SvgjsText1658" font-family="微软雅黑" text-anchor="middle" font-size="13px" width="147" fill="#323232" font-weight="400" align="middle" anchor="middle" family="微软雅黑" size="13px" weight="400" font-style="" y="-7.95" transform="rotate(0)"><tspan id="SvgjsTspan1659" dy="16" x="76"><tspan id="SvgjsTspan1660" style="text-decoration:;">4</tspan><tspan id="SvgjsTspan1661" style="text-decoration:;font-size: inherit;">. 建立与server的连接,并</tspan></tspan><tspan id="SvgjsTspan1662" dy="16" x="76"><tspan id="SvgjsTspan1663" style="text-decoration:;font-size: inherit;">建立a1和a2的映射</tspan></tspan></text></g></g></svg>